<?xml version="1.0" encoding="UTF-8"?>
<!DOCTYPE svg PUBLIC "-//W3C//DTD SVG 1.1//EN" "http://www.w3.org/Graphics/SVG/1.1/DTD/svg11.dtd">
<svg xmlns="http://www.w3.org/2000/svg" version="1.1" width="1244px" height="488px" style="shape-rendering:geometricPrecision; text-rendering:geometricPrecision; image-rendering:optimizeQuality; fill-rule:evenodd; clip-rule:evenodd" xmlns:xlink="http://www.w3.org/1999/xlink">
<g><path style="opacity:1" fill="#fefefe" d="M -0.5,-0.5 C 414.167,-0.5 828.833,-0.5 1243.5,-0.5C 1243.5,162.167 1243.5,324.833 1243.5,487.5C 828.833,487.5 414.167,487.5 -0.5,487.5C -0.5,324.833 -0.5,162.167 -0.5,-0.5 Z"/></g>
<g><path style="opacity:1" fill="#a125f0" d="M 107.5,127.5 C 143.103,132.09 176.103,143.923 206.5,163C 213.739,168.537 221.239,173.704 229,178.5C 229.497,181.146 229.664,183.813 229.5,186.5C 208.635,180.2 187.635,174.367 166.5,169C 147.722,164.789 128.722,162.289 109.5,161.5C 108.648,150.233 107.982,138.899 107.5,127.5 Z"/></g>
<g><path style="opacity:1" fill="#a227f0" d="M 357.5,127.5 C 360.167,127.5 362.833,127.5 365.5,127.5C 365.452,138.511 365.119,149.511 364.5,160.5C 322.659,163.795 281.992,172.461 242.5,186.5C 242.223,183.552 242.556,180.719 243.5,178C 277.519,152.157 315.519,135.323 357.5,127.5 Z"/></g>
<g><path style="opacity:1" fill="#ba5ff4" d="M 107.5,127.5 C 107.982,138.899 108.648,150.233 109.5,161.5C 108.176,157.893 107.509,153.893 107.5,149.5C 106.874,141.986 106.874,134.653 107.5,127.5 Z"/></g>
<g><path style="opacity:1" fill="#a020f0" d="M 72.5,175.5 C 126.337,174.714 178.337,184.047 228.5,203.5C 228.832,263.336 228.499,323.002 227.5,382.5C 194.23,370.1 159.897,362.266 124.5,359C 111.838,358.5 99.1711,358.333 86.5,358.5C 86.3871,350.811 85.8871,343.145 85,335.5C 84.7679,334.263 84.2679,333.263 83.5,332.5C 83.5,331.167 83.5,329.833 83.5,328.5C 83.6657,324.154 83.499,319.821 83,315.5C 82.7679,314.263 82.2679,313.263 81.5,312.5C 81.4793,305.626 80.8127,298.959 79.5,292.5C 79.5874,287.463 79.254,282.463 78.5,277.5C 78.3404,265.221 77.0071,253.221 74.5,241.5C 74.8128,237.958 74.4794,234.625 73.5,231.5C 73.5,230.167 73.5,228.833 73.5,227.5C 73.6657,223.154 73.499,218.821 73,214.5C 72.7679,213.263 72.2679,212.263 71.5,211.5C 71.756,207.731 71.4227,204.064 70.5,200.5C 70.4599,195.807 70.1266,191.141 69.5,186.5C 69.5,183.167 69.5,179.833 69.5,176.5C 70.791,176.737 71.791,176.404 72.5,175.5 Z"/></g>
<g><path style="opacity:1" fill="#a021f0" d="M 403.5,176.5 C 402.902,181.813 402.569,187.146 402.5,192.5C 400.458,205.954 399.124,219.621 398.5,233.5C 397.263,238.96 396.596,244.627 396.5,250.5C 395.6,255.772 395.267,261.105 395.5,266.5C 393.969,271.25 393.302,276.25 393.5,281.5C 391.577,295.062 390.244,308.729 389.5,322.5C 388.62,332.713 387.62,343.047 386.5,353.5C 385.549,354.919 385.216,356.585 385.5,358.5C 382.167,358.5 378.833,358.5 375.5,358.5C 330.587,358.15 287.254,366.15 245.5,382.5C 243.504,323.509 242.837,264.176 243.5,204.5C 294.678,183.525 348.011,174.192 403.5,176.5 Z"/></g>
<g><path style="opacity:1" fill="#be67f4" d="M 72.5,175.5 C 71.791,176.404 70.791,176.737 69.5,176.5C 69.5,179.833 69.5,183.167 69.5,186.5C 69.1667,186.5 68.8333,186.5 68.5,186.5C 68.5,182.833 68.5,179.167 68.5,175.5C 69.8333,175.5 71.1667,175.5 72.5,175.5 Z"/></g>
<g><path style="opacity:1" fill="#e1b7fa" d="M 403.5,176.5 C 404.644,181.888 404.311,187.221 402.5,192.5C 402.569,187.146 402.902,181.813 403.5,176.5 Z"/></g>
<g><path style="opacity:1" fill="#dfb3f9" d="M 68.5,186.5 C 68.8333,186.5 69.1667,186.5 69.5,186.5C 70.1266,191.141 70.4599,195.807 70.5,200.5C 68.7895,196.119 68.1228,191.453 68.5,186.5 Z"/></g>
<g><path style="opacity:1" fill="#c981f6" d="M 228.5,203.5 C 229.831,263.335 229.831,323.335 228.5,383.5C 227.893,383.376 227.56,383.043 227.5,382.5C 228.499,323.002 228.832,263.336 228.5,203.5 Z"/></g>
<g><path style="opacity:1" fill="#c982f6" d="M 243.5,204.5 C 242.837,264.176 243.504,323.509 245.5,382.5C 244.791,383.404 243.791,383.737 242.5,383.5C 242.168,323.664 242.501,263.998 243.5,204.5 Z"/></g>
<g><path style="opacity:1" fill="#be68f4" d="M 71.5,211.5 C 72.2679,212.263 72.7679,213.263 73,214.5C 73.499,218.821 73.6657,223.154 73.5,227.5C 72.4486,222.354 71.7819,217.021 71.5,211.5 Z"/></g>
<g><path style="opacity:1" fill="#464646" d="M 657.5,223.5 C 658.5,223.5 659.5,223.5 660.5,223.5C 660.859,225.766 660.192,227.599 658.5,229C 630.835,229.5 603.169,229.667 575.5,229.5C 574.507,237.984 574.174,246.651 574.5,255.5C 602.5,255.5 630.5,255.5 658.5,255.5C 661.139,257.159 661.139,258.992 658.5,261C 630.835,261.5 603.169,261.667 575.5,261.5C 574.507,269.984 574.174,278.651 574.5,287.5C 602.5,287.5 630.5,287.5 658.5,287.5C 659.649,287.791 660.316,288.624 660.5,290C 660.316,291.376 659.649,292.209 658.5,292.5C 629.167,292.5 599.833,292.5 570.5,292.5C 570.5,269.5 570.5,246.5 570.5,223.5C 599.5,223.5 628.5,223.5 657.5,223.5 Z"/></g>
<g><path style="opacity:1" fill="#464646" d="M 757.5,223.5 C 760.139,225.159 760.139,226.992 757.5,229C 729.835,229.5 702.169,229.667 674.5,229.5C 673.507,237.984 673.174,246.651 673.5,255.5C 701.5,255.5 729.5,255.5 757.5,255.5C 760.139,257.159 760.139,258.992 757.5,261C 729.835,261.5 702.169,261.667 674.5,261.5C 673.507,269.984 673.174,278.651 673.5,287.5C 701.5,287.5 729.5,287.5 757.5,287.5C 758.649,287.791 759.316,288.624 759.5,290C 759.316,291.376 758.649,292.209 757.5,292.5C 728.167,292.5 698.833,292.5 669.5,292.5C 669.5,269.5 669.5,246.5 669.5,223.5C 698.833,223.5 728.167,223.5 757.5,223.5 Z"/></g>
<g><path style="opacity:1" fill="#444444" d="M 855.5,228.5 C 841.833,228.5 828.167,228.5 814.5,228.5C 814.5,249.5 814.5,270.5 814.5,291.5C 813.432,292.434 812.099,292.768 810.5,292.5C 809.844,271.402 809.177,250.402 808.5,229.5C 795.01,228.504 781.344,228.171 767.5,228.5C 765.29,227.545 764.957,226.045 766.5,224C 796.5,223.333 826.5,223.333 856.5,224C 858.043,226.045 857.71,227.545 855.5,228.5 Z"/></g>
<g><path style="opacity:1" fill="#494949" d="M 954.5,272.5 C 931.337,271.337 908.004,271.17 884.5,272C 883.944,272.383 883.611,272.883 883.5,273.5C 877.912,279.457 872.578,285.624 867.5,292C 865.866,292.494 864.199,292.66 862.5,292.5C 862.341,289.813 863.175,287.48 865,285.5C 882.697,264.144 900.697,243.144 919,222.5C 937.929,244.104 956.929,265.771 976,287.5C 976.494,289.134 976.66,290.801 976.5,292.5C 974.801,292.66 973.134,292.494 971.5,292C 966.17,285.147 960.503,278.647 954.5,272.5 Z"/></g>
<g><path style="opacity:1" fill="#454545" d="M 1053.5,271.5 C 1032.5,271.5 1011.5,271.5 990.5,271.5C 990.5,278.5 990.5,285.5 990.5,292.5C 988.833,292.5 987.167,292.5 985.5,292.5C 985.5,269.5 985.5,246.5 985.5,223.5C 1009.5,223.333 1033.5,223.5 1057.5,224C 1075.02,230.228 1080.19,242.061 1073,259.5C 1068.48,266.678 1061.98,270.678 1053.5,271.5 Z"/></g>
<g><path style="opacity:1" fill="#474747" d="M 1153.5,271.5 C 1132.5,271.5 1111.5,271.5 1090.5,271.5C 1090.5,278.5 1090.5,285.5 1090.5,292.5C 1088.83,292.5 1087.17,292.5 1085.5,292.5C 1085.5,269.5 1085.5,246.5 1085.5,223.5C 1109.5,223.333 1133.5,223.5 1157.5,224C 1176.52,231.429 1181.02,244.263 1171,262.5C 1166.59,268.249 1160.76,271.249 1153.5,271.5 Z"/></g>
<g><path style="opacity:1" fill="#4b4b4b" d="M 476.5,224.5 C 476.5,237.833 476.5,251.167 476.5,264.5C 477.791,264.737 478.791,264.404 479.5,263.5C 504.651,250.424 529.984,237.591 555.5,225C 557.5,224.333 559.5,224.333 561.5,225C 562.833,226.333 562.833,227.667 561.5,229C 548.344,235.411 535.344,242.078 522.5,249C 535.304,262.805 548.471,276.305 562,289.5C 562.611,293.088 561.111,294.254 557.5,293C 544.167,279.667 530.833,266.333 517.5,253C 516.167,252.333 514.833,252.333 513.5,253C 501.376,259.397 489.043,265.23 476.5,270.5C 476.666,277.841 476.5,285.174 476,292.5C 474.644,293.38 473.144,293.714 471.5,293.5C 471.333,270.498 471.5,247.498 472,224.5C 473.49,223.272 474.99,223.272 476.5,224.5 Z"/></g>
<g><path style="opacity:1" fill="#939393" d="M 476.5,224.5 C 476.84,237.699 477.84,250.699 479.5,263.5C 478.791,264.404 477.791,264.737 476.5,264.5C 476.5,251.167 476.5,237.833 476.5,224.5 Z"/></g>
<g><path style="opacity:1" fill="#707070" d="M 808.5,229.5 C 809.177,250.402 809.844,271.402 810.5,292.5C 809.508,292.672 808.842,292.338 808.5,291.5C 808.5,270.833 808.5,250.167 808.5,229.5 Z"/></g>
<g><path style="opacity:1" fill="#bababa" d="M 855.5,228.5 C 842.344,229.496 829.01,229.829 815.5,229.5C 815.831,250.34 815.497,271.007 814.5,291.5C 814.5,270.5 814.5,249.5 814.5,228.5C 828.167,228.5 841.833,228.5 855.5,228.5 Z"/></g>
<g><path style="opacity:1" fill="#fdfdfd" d="M 1054.5,229.5 C 1067.07,232.228 1072.24,239.894 1070,252.5C 1068.33,255.167 1066.67,257.833 1065,260.5C 1061.71,263.397 1057.87,265.064 1053.5,265.5C 1032.83,265.5 1012.17,265.5 991.5,265.5C 991.5,253.5 991.5,241.5 991.5,229.5C 1012.5,229.5 1033.5,229.5 1054.5,229.5 Z"/></g>
<g><path style="opacity:1" fill="#fdfdfd" d="M 1091.5,229.5 C 1113.17,229.333 1134.84,229.5 1156.5,230C 1171.09,235.263 1174.59,244.763 1167,258.5C 1163.39,262.553 1158.89,264.886 1153.5,265.5C 1132.83,265.5 1112.17,265.5 1091.5,265.5C 1091.5,253.5 1091.5,241.5 1091.5,229.5 Z"/></g>
<g><path style="opacity:1" fill="#f9f9f9" d="M 948.5,265.5 C 928.993,265.83 909.659,265.497 890.5,264.5C 898.409,255.071 906.242,245.404 914,235.5C 915.389,233.773 917.056,232.439 919,231.5C 929.053,242.579 938.886,253.912 948.5,265.5 Z"/></g>
<g><path style="opacity:1" fill="#bababa" d="M 767.5,228.5 C 781.344,228.171 795.01,228.504 808.5,229.5C 808.5,250.167 808.5,270.833 808.5,291.5C 807.503,271.007 807.169,250.34 807.5,229.5C 793.99,229.829 780.656,229.496 767.5,228.5 Z"/></g>
<g><path style="opacity:1" fill="#eacefb" d="M 73.5,231.5 C 74.4794,234.625 74.8128,237.958 74.5,241.5C 75.1637,246.473 75.4971,251.473 75.5,256.5C 73.7686,248.401 73.1019,240.068 73.5,231.5 Z"/></g>
<g><path style="opacity:1" fill="#bd66f4" d="M 74.5,241.5 C 77.0071,253.221 78.3404,265.221 78.5,277.5C 77.5599,270.493 76.5599,263.493 75.5,256.5C 75.4971,251.473 75.1637,246.473 74.5,241.5 Z"/></g>
<g><path style="opacity:1" fill="#daa8f9" d="M 398.5,233.5 C 398.784,239.417 398.117,245.084 396.5,250.5C 396.596,244.627 397.263,238.96 398.5,233.5 Z"/></g>
<g><path style="opacity:1" fill="#ababab" d="M 575.5,229.5 C 575.5,237.833 575.5,246.167 575.5,254.5C 603.338,254.169 631.005,254.502 658.5,255.5C 630.5,255.5 602.5,255.5 574.5,255.5C 574.174,246.651 574.507,237.984 575.5,229.5 Z"/></g>
<g><path style="opacity:1" fill="#ababab" d="M 674.5,229.5 C 674.5,237.833 674.5,246.167 674.5,254.5C 702.338,254.169 730.005,254.502 757.5,255.5C 729.5,255.5 701.5,255.5 673.5,255.5C 673.174,246.651 673.507,237.984 674.5,229.5 Z"/></g>
<g><path style="opacity:1" fill="#6f6f6f" d="M 890.5,264.5 C 909.659,265.497 928.993,265.83 948.5,265.5C 928.996,266.828 909.329,266.828 889.5,265.5C 889.624,264.893 889.957,264.56 890.5,264.5 Z"/></g>
<g><path style="opacity:1" fill="#797979" d="M 1054.5,229.5 C 1033.5,229.5 1012.5,229.5 991.5,229.5C 991.5,241.5 991.5,253.5 991.5,265.5C 1012.17,265.5 1032.83,265.5 1053.5,265.5C 1032.67,266.497 1011.67,266.831 990.5,266.5C 990.5,253.833 990.5,241.167 990.5,228.5C 1012.01,228.169 1033.34,228.503 1054.5,229.5 Z"/></g>
<g><path style="opacity:1" fill="#757575" d="M 1091.5,229.5 C 1091.5,241.5 1091.5,253.5 1091.5,265.5C 1112.17,265.5 1132.83,265.5 1153.5,265.5C 1132.67,266.497 1111.67,266.831 1090.5,266.5C 1090.17,253.989 1090.5,241.655 1091.5,229.5 Z"/></g>
<g><path style="opacity:1" fill="#cecece" d="M 954.5,272.5 C 930.788,272.187 907.122,272.52 883.5,273.5C 883.611,272.883 883.944,272.383 884.5,272C 908.004,271.17 931.337,271.337 954.5,272.5 Z"/></g>
<g><path style="opacity:1" fill="#c2c2c2" d="M 1053.5,271.5 C 1033.01,272.497 1012.34,272.831 991.5,272.5C 991.824,279.354 991.491,286.021 990.5,292.5C 990.5,285.5 990.5,278.5 990.5,271.5C 1011.5,271.5 1032.5,271.5 1053.5,271.5 Z"/></g>
<g><path style="opacity:1" fill="#c4c4c4" d="M 1153.5,271.5 C 1133.34,272.497 1113.01,272.83 1092.5,272.5C 1092.67,278.842 1092.5,285.175 1092,291.5C 1091.62,292.056 1091.12,292.389 1090.5,292.5C 1090.5,285.5 1090.5,278.5 1090.5,271.5C 1111.5,271.5 1132.5,271.5 1153.5,271.5 Z"/></g>
<g><path style="opacity:1" fill="#deaff9" d="M 395.5,266.5 C 395.811,271.766 395.145,276.766 393.5,281.5C 393.302,276.25 393.969,271.25 395.5,266.5 Z"/></g>
<g><path style="opacity:1" fill="#ababab" d="M 575.5,261.5 C 575.5,269.833 575.5,278.167 575.5,286.5C 603.338,286.169 631.005,286.502 658.5,287.5C 630.5,287.5 602.5,287.5 574.5,287.5C 574.174,278.651 574.507,269.984 575.5,261.5 Z"/></g>
<g><path style="opacity:1" fill="#ababab" d="M 674.5,261.5 C 674.5,269.833 674.5,278.167 674.5,286.5C 702.338,286.169 730.005,286.502 757.5,287.5C 729.5,287.5 701.5,287.5 673.5,287.5C 673.174,278.651 673.507,269.984 674.5,261.5 Z"/></g>
<g><path style="opacity:1" fill="#969696" d="M 657.5,223.5 C 628.5,223.5 599.5,223.5 570.5,223.5C 570.5,246.5 570.5,269.5 570.5,292.5C 599.833,292.5 629.167,292.5 658.5,292.5C 628.671,293.498 598.671,293.831 568.5,293.5C 568.173,269.925 568.506,246.425 569.5,223C 599.003,222.17 628.336,222.336 657.5,223.5 Z"/></g>
<g><path style="opacity:1" fill="#969696" d="M 757.5,223.5 C 728.167,223.5 698.833,223.5 669.5,223.5C 669.5,246.5 669.5,269.5 669.5,292.5C 698.833,292.5 728.167,292.5 757.5,292.5C 727.671,293.498 697.671,293.831 667.5,293.5C 667.173,269.925 667.506,246.425 668.5,223C 698.336,222.169 728.003,222.336 757.5,223.5 Z"/></g>
<g><path style="opacity:1" fill="#be68f4" d="M 81.5,312.5 C 82.2679,313.263 82.7679,314.263 83,315.5C 83.499,319.821 83.6657,324.154 83.5,328.5C 83.1667,328.5 82.8333,328.5 82.5,328.5C 82.4312,323.146 82.0978,317.813 81.5,312.5 Z"/></g>
<g><path style="opacity:1" fill="#ecd1fb" d="M 79.5,292.5 C 80.8127,298.959 81.4793,305.626 81.5,312.5C 82.0978,317.813 82.4312,323.146 82.5,328.5C 80.3266,316.742 79.3266,304.742 79.5,292.5 Z"/></g>
<g><path style="opacity:1" fill="#be67f4" d="M 83.5,332.5 C 84.2679,333.263 84.7679,334.263 85,335.5C 85.8871,343.145 86.3871,350.811 86.5,358.5C 85.2224,350.007 84.2224,341.34 83.5,332.5 Z"/></g>
<g><path style="opacity:1" fill="#e8c9fb" d="M 389.5,322.5 C 389.666,328.842 389.5,335.175 389,341.5C 388.811,345.767 387.977,349.767 386.5,353.5C 387.62,343.047 388.62,332.713 389.5,322.5 Z"/></g>
<g><path style="opacity:1" fill="#dbaaf9" d="M 386.5,353.5 C 386.5,355.5 386.5,357.5 386.5,359.5C 382.629,359.815 378.962,359.482 375.5,358.5C 378.833,358.5 382.167,358.5 385.5,358.5C 385.216,356.585 385.549,354.919 386.5,353.5 Z"/></g>
</svg>
